<svg width="30" height="30" viewBox="0 0 30 30" fill="none" xmlns="http://www.w3.org/2000/svg">
<path d="M26.25 9.1V6.25C26.25 4.875 25.125 3.75 23.75 3.75H6.25C4.8625 3.75 3.75 4.875 3.75 6.25V23.75C3.75 25.125 4.8625 26.25 6.25 26.25H23.75C25.125 26.25 26.25 25.125 26.25 23.75V20.9C26.9875 20.4625 27.5 19.675 27.5 18.75V11.25C27.5 10.325 26.9875 9.5375 26.25 9.1ZM25 11.25V18.75H16.25V11.25H25ZM6.25 23.75V6.25H23.75V8.75H16.25C14.875 8.75 13.75 9.875 13.75 11.25V18.75C13.75 20.125 14.875 21.25 16.25 21.25H23.75V23.75H6.25Z" fill="#EA1E62"/>
<path d="M20 16.875C21.0355 16.875 21.875 16.0355 21.875 15C21.875 13.9645 21.0355 13.125 20 13.125C18.9645 13.125 18.125 13.9645 18.125 15C18.125 16.0355 18.9645 16.875 20 16.875Z" fill="#EA1E62"/>
</svg>
