<svg width="150" height="40" viewBox="0 0 150 40" fill="none" xmlns="http://www.w3.org/2000/svg">
<g clip-path="url(#clip0_2283_34042)">
<path d="M57.0222 17.2273C57.1529 17.2273 57.2658 17.2748 57.3608 17.3698C57.4559 17.4649 57.5034 17.5778 57.5034 17.7084V19.5975C57.5034 19.7282 57.4559 19.8411 57.3608 19.9361C57.2658 20.0312 57.1529 20.0787 57.0222 20.0787H48.7709C48.6402 20.0787 48.5274 20.0312 48.4323 19.9361C48.3373 19.8411 48.2898 19.7282 48.2898 19.5975V8.08493C48.2898 7.95424 48.3373 7.84137 48.4323 7.74632C48.5274 7.65127 48.6402 7.60375 48.7709 7.60375H51.1055C51.2362 7.60375 51.3491 7.65127 51.4441 7.74632C51.5392 7.84137 51.5867 7.95424 51.5867 8.08493V17.2273H57.0222Z" fill="white"/>
<path d="M62.2029 15.2313H67.2998C67.4305 15.2313 67.5434 15.1838 67.6384 15.0887C67.7335 14.9937 67.781 14.8808 67.781 14.7501V12.861C67.781 12.7304 67.7335 12.6175 67.6384 12.5224C67.5434 12.4274 67.4305 12.3799 67.2998 12.3799H62.2029V10.4552H67.6919C67.8226 10.4552 67.9354 10.4076 68.0305 10.3126C68.1255 10.2175 68.1731 10.1047 68.1731 9.97399V8.08493C68.1731 7.95424 68.1255 7.84137 68.0305 7.74632C67.9354 7.65127 67.8226 7.60375 67.6919 7.60375H59.3871C59.2565 7.60375 59.1436 7.65127 59.0485 7.74632C58.9535 7.84137 58.906 7.95424 58.906 8.08493V19.5975C58.906 19.7282 58.9535 19.8411 59.0485 19.9361C59.1436 20.0312 59.2565 20.0787 59.3871 20.0787H67.8344C67.9651 20.0787 68.078 20.0312 68.1731 19.9361C68.2681 19.8411 68.3156 19.7282 68.3156 19.5975V17.7084C68.3156 17.5778 68.2681 17.4649 68.1731 17.3698C68.078 17.2748 67.9651 17.2273 67.8344 17.2273H62.2029V15.2313Z" fill="white"/>
<path d="M75.5079 7.42554C76.6366 7.42554 77.6108 7.63939 78.4306 8.0671C79.2504 8.49482 79.8801 9.07698 80.3197 9.81359C80.7712 10.5383 81.0206 11.3522 81.0682 12.2551C81.0919 12.5878 81.1038 13.1224 81.1038 13.859C81.1038 14.5838 81.0919 15.1065 81.0682 15.4273C81.0206 16.3303 80.7712 17.15 80.3197 17.8867C79.8801 18.6114 79.2504 19.1876 78.4306 19.6153C77.6108 20.043 76.6366 20.2569 75.5079 20.2569C74.3792 20.2569 73.405 20.043 72.5852 19.6153C71.7654 19.1876 71.1298 18.6114 70.6783 17.8867C70.2388 17.15 69.9952 16.3303 69.9477 15.4273C69.9239 14.7857 69.912 14.263 69.912 13.859C69.912 13.4551 69.9239 12.9204 69.9477 12.2551C69.9952 11.3522 70.2388 10.5383 70.6783 9.81359C71.1298 9.07698 71.7654 8.49482 72.5852 8.0671C73.405 7.63939 74.3792 7.42554 75.5079 7.42554ZM77.7712 12.3442C77.7118 11.7145 77.492 11.2155 77.1118 10.8472C76.7435 10.467 76.2089 10.2769 75.5079 10.2769C74.8069 10.2769 74.2664 10.467 73.8862 10.8472C73.5179 11.2155 73.304 11.7145 73.2446 12.3442C73.209 12.7363 73.1912 13.2293 73.1912 13.8234C73.1912 14.4056 73.209 14.9105 73.2446 15.3382C73.304 15.9679 73.5179 16.4728 73.8862 16.853C74.2664 17.2213 74.8069 17.4055 75.5079 17.4055C76.2089 17.4055 76.7435 17.2213 77.1118 16.853C77.492 16.4728 77.7118 15.9679 77.7712 15.3382C77.8069 14.9105 77.8247 14.4056 77.8247 13.8234C77.8247 13.2293 77.8069 12.7363 77.7712 12.3442Z" fill="white"/>
<path d="M91.2579 20.0787C91.0797 20.0787 90.9253 20.0371 90.7946 19.9539C90.6639 19.8589 90.5748 19.7638 90.5273 19.6688L86.4462 13.5739V19.5975C86.4462 19.7282 86.3987 19.8411 86.3036 19.9361C86.2086 20.0312 86.0957 20.0787 85.965 20.0787H83.6304C83.4997 20.0787 83.3868 20.0312 83.2918 19.9361C83.1968 19.8411 83.1492 19.7282 83.1492 19.5975V8.08493C83.1492 7.95424 83.1968 7.84137 83.2918 7.74632C83.3868 7.65127 83.4997 7.60375 83.6304 7.60375H85.4838C85.662 7.60375 85.8165 7.65127 85.9472 7.74632C86.0779 7.82949 86.167 7.91859 86.2145 8.01364L90.2956 14.1085V8.08493C90.2956 7.95424 90.3431 7.84137 90.4382 7.74632C90.5332 7.65127 90.6461 7.60375 90.7768 7.60375H93.1113C93.242 7.60375 93.3549 7.65127 93.45 7.74632C93.545 7.84137 93.5925 7.95424 93.5925 8.08493V19.5975C93.5925 19.7282 93.545 19.8411 93.45 19.9361C93.3549 20.0312 93.242 20.0787 93.1113 20.0787H91.2579Z" fill="white"/>
<path d="M96.5613 20.0787C96.4306 20.0787 96.3177 20.0312 96.2227 19.9361C96.1277 19.8411 96.0801 19.7282 96.0801 19.5975V8.08493C96.0801 7.95424 96.1277 7.84137 96.2227 7.74632C96.3177 7.65127 96.4306 7.60375 96.5613 7.60375H98.8959C99.0266 7.60375 99.1395 7.65127 99.2345 7.74632C99.3295 7.84137 99.3771 7.95424 99.3771 8.08493V19.5975C99.3771 19.7282 99.3295 19.8411 99.2345 19.9361C99.1395 20.0312 99.0266 20.0787 98.8959 20.0787H96.5613Z" fill="white"/>
<path d="M104.745 15.3382C104.792 15.956 104.988 16.455 105.333 16.8352C105.689 17.2154 106.242 17.4055 106.99 17.4055C107.703 17.4055 108.22 17.2688 108.541 16.9956C108.861 16.7223 109.087 16.3897 109.218 15.9976C109.289 15.7956 109.36 15.659 109.432 15.5877C109.503 15.5164 109.634 15.4808 109.824 15.4808H112.158C112.265 15.4808 112.354 15.5224 112.426 15.6055C112.509 15.6768 112.551 15.7659 112.551 15.8728C112.539 16.6689 112.283 17.4055 111.784 18.0827C111.297 18.748 110.632 19.2767 109.788 19.6688C108.945 20.0609 108.012 20.2569 106.99 20.2569C105.885 20.2569 104.923 20.043 104.103 19.6153C103.283 19.1757 102.648 18.5936 102.196 17.8688C101.745 17.1322 101.495 16.3184 101.448 15.4273C101.424 14.857 101.412 14.3877 101.412 14.0194C101.412 13.5798 101.424 12.9917 101.448 12.2551C101.483 11.364 101.727 10.5561 102.178 9.83142C102.63 9.0948 103.266 8.51264 104.085 8.08493C104.917 7.64533 105.885 7.42554 106.99 7.42554C108.012 7.42554 108.945 7.62157 109.788 8.01364C110.632 8.40571 111.297 8.94035 111.784 9.61756C112.283 10.2829 112.539 11.0136 112.551 11.8096C112.551 11.9165 112.509 12.0116 112.426 12.0947C112.354 12.166 112.265 12.2017 112.158 12.2017H109.824C109.634 12.2017 109.503 12.166 109.432 12.0947C109.36 12.0234 109.289 11.8868 109.218 11.6848C109.087 11.2928 108.861 10.9601 108.541 10.6868C108.22 10.4136 107.703 10.2769 106.99 10.2769C106.242 10.2769 105.689 10.467 105.333 10.8472C104.988 11.2274 104.792 11.7264 104.745 12.3442C104.721 12.7482 104.709 13.2472 104.709 13.8412C104.709 14.4115 104.721 14.9105 104.745 15.3382Z" fill="white"/>
<path d="M119.539 7.42554C120.668 7.42554 121.642 7.63939 122.462 8.0671C123.282 8.49482 123.911 9.07698 124.351 9.81359C124.802 10.5383 125.052 11.3522 125.099 12.2551C125.123 12.5878 125.135 13.1224 125.135 13.859C125.135 14.5838 125.123 15.1065 125.099 15.4273C125.052 16.3303 124.802 17.15 124.351 17.8867C123.911 18.6114 123.282 19.1876 122.462 19.6153C121.642 20.043 120.668 20.2569 119.539 20.2569C118.41 20.2569 117.436 20.043 116.616 19.6153C115.797 19.1876 115.161 18.6114 114.71 17.8867C114.27 17.15 114.026 16.3303 113.979 15.4273C113.955 14.7857 113.943 14.263 113.943 13.859C113.943 13.4551 113.955 12.9204 113.979 12.2551C114.026 11.3522 114.27 10.5383 114.71 9.81359C115.161 9.07698 115.797 8.49482 116.616 8.0671C117.436 7.63939 118.41 7.42554 119.539 7.42554ZM121.802 12.3442C121.743 11.7145 121.523 11.2155 121.143 10.8472C120.775 10.467 120.24 10.2769 119.539 10.2769C118.838 10.2769 118.298 10.467 117.917 10.8472C117.549 11.2155 117.335 11.7145 117.276 12.3442C117.24 12.7363 117.222 13.2293 117.222 13.8234C117.222 14.4056 117.24 14.9105 117.276 15.3382C117.335 15.9679 117.549 16.4728 117.917 16.853C118.298 17.2213 118.838 17.4055 119.539 17.4055C120.24 17.4055 120.775 17.2213 121.143 16.853C121.523 16.4728 121.743 15.9679 121.802 15.3382C121.838 14.9105 121.856 14.4056 121.856 13.8234C121.856 13.2293 121.838 12.7363 121.802 12.3442Z" fill="white"/>
<path d="M132.491 7.60375C134.083 7.60375 135.319 7.9483 136.198 8.63739C137.077 9.3146 137.517 10.3304 137.517 11.6848C137.517 13.4076 136.81 14.5956 135.396 15.2491L137.606 19.4906C137.642 19.5619 137.659 19.6272 137.659 19.6866C137.659 19.7935 137.618 19.8886 137.535 19.9717C137.463 20.043 137.374 20.0787 137.267 20.0787H134.844C134.63 20.0787 134.469 20.0371 134.362 19.9539C134.255 19.8589 134.166 19.7401 134.095 19.5975L132.117 15.7837H130.477V19.5975C130.477 19.7282 130.43 19.8411 130.335 19.9361C130.24 20.0312 130.127 20.0787 129.996 20.0787H127.662C127.531 20.0787 127.418 20.0312 127.323 19.9361C127.228 19.8411 127.18 19.7282 127.18 19.5975V8.08493C127.18 7.95424 127.228 7.84137 127.323 7.74632C127.418 7.65127 127.531 7.60375 127.662 7.60375H132.491ZM132.491 13.0036C133.644 13.0036 134.22 12.564 134.22 11.6848C134.22 10.8056 133.644 10.3661 132.491 10.3661H130.477V13.0036H132.491Z" fill="white"/>
<path d="M147.681 20.0787C147.502 20.0787 147.348 20.0371 147.217 19.9539C147.086 19.8589 146.997 19.7638 146.95 19.6688L142.869 13.5739V19.5975C142.869 19.7282 142.821 19.8411 142.726 19.9361C142.631 20.0312 142.518 20.0787 142.388 20.0787H140.053C139.922 20.0787 139.809 20.0312 139.714 19.9361C139.619 19.8411 139.572 19.7282 139.572 19.5975V8.08493C139.572 7.95424 139.619 7.84137 139.714 7.74632C139.809 7.65127 139.922 7.60375 140.053 7.60375H141.906C142.085 7.60375 142.239 7.65127 142.37 7.74632C142.5 7.82949 142.59 7.91859 142.637 8.01364L146.718 14.1085V8.08493C146.718 7.95424 146.766 7.84137 146.861 7.74632C146.956 7.65127 147.069 7.60375 147.199 7.60375H149.534C149.665 7.60375 149.777 7.65127 149.873 7.74632C149.968 7.84137 150.015 7.95424 150.015 8.08493V19.5975C150.015 19.7282 149.968 19.8411 149.873 19.9361C149.777 20.0312 149.665 20.0787 149.534 20.0787H147.681Z" fill="white"/>
<path d="M51.3461 33.5783C50.5442 33.5783 49.858 33.458 49.2877 33.2174C48.7175 32.9769 48.2853 32.6605 47.9912 32.2685C47.6972 31.8764 47.5413 31.4487 47.5234 30.9853C47.5234 30.914 47.5502 30.8517 47.6036 30.7982C47.6571 30.7358 47.7239 30.7046 47.8041 30.7046H49.0204C49.1184 30.7046 49.1986 30.7269 49.261 30.7715C49.3234 30.816 49.3813 30.8784 49.4348 30.9586C49.5239 31.2616 49.7244 31.5155 50.0362 31.7205C50.357 31.9254 50.7936 32.0279 51.3461 32.0279C51.9699 32.0279 52.4377 31.9254 52.7495 31.7205C53.0703 31.5066 53.2307 31.217 53.2307 30.8517C53.2307 30.6111 53.1505 30.4106 52.9901 30.2502C52.8297 30.0898 52.5847 29.9517 52.255 29.8358C51.9342 29.7111 51.453 29.5641 50.8115 29.3948C49.76 29.1453 48.9892 28.8156 48.4992 28.4057C48.0091 27.9958 47.764 27.4077 47.764 26.6414C47.764 26.1246 47.9066 25.6657 48.1917 25.2647C48.4769 24.8548 48.8823 24.534 49.408 24.3023C49.9427 24.0707 50.562 23.9548 51.2659 23.9548C52.0055 23.9548 52.6426 24.084 53.1773 24.3424C53.7208 24.6008 54.1307 24.9261 54.4069 25.3181C54.6921 25.7013 54.8435 26.0845 54.8614 26.4676C54.8614 26.5389 54.8346 26.6057 54.7812 26.6681C54.7277 26.7216 54.6609 26.7483 54.5807 26.7483H53.3109C53.1149 26.7483 52.9812 26.6681 52.9099 26.5077C52.8654 26.2226 52.6916 25.9864 52.3887 25.7993C52.0857 25.6033 51.7114 25.5053 51.2659 25.5053C50.7758 25.5053 50.3882 25.5988 50.1031 25.786C49.8268 25.9731 49.6887 26.2449 49.6887 26.6013C49.6887 26.8419 49.76 27.0424 49.9026 27.2028C50.0452 27.3631 50.2679 27.5057 50.5709 27.6305C50.8738 27.7463 51.3149 27.88 51.8941 28.0314C52.6872 28.2097 53.3154 28.4101 53.7787 28.6329C54.251 28.8557 54.5985 29.1364 54.8213 29.475C55.044 29.8136 55.1554 30.2457 55.1554 30.7715C55.1554 31.3507 54.995 31.8541 54.6742 32.2818C54.3624 32.7006 53.9168 33.0214 53.3376 33.2442C52.7674 33.4669 52.1035 33.5783 51.3461 33.5783Z" fill="white"/>
<path d="M58.0801 33.4447C57.8217 33.4447 57.6613 33.311 57.5989 33.0437L56.0217 24.4761L56.0083 24.3692C56.0083 24.289 56.0351 24.2221 56.0885 24.1687C56.142 24.1152 56.2088 24.0885 56.289 24.0885H57.492C57.6078 24.0885 57.6924 24.1108 57.7459 24.1553C57.7994 24.1909 57.835 24.2578 57.8528 24.3558L58.9622 30.3705L60.1518 26.4944C60.2409 26.2716 60.3879 26.1602 60.5929 26.1602H61.328C61.4438 26.1602 61.5374 26.1958 61.6087 26.2671C61.68 26.3295 61.729 26.4052 61.7557 26.4944L62.9586 30.3705L64.0547 24.3558C64.0814 24.1776 64.2061 24.0885 64.4289 24.0885H65.6318C65.7031 24.0885 65.7655 24.1152 65.819 24.1687C65.8724 24.2221 65.8992 24.289 65.8992 24.3692C65.8992 24.4137 65.8947 24.4494 65.8858 24.4761L64.3086 33.0437C64.2908 33.1684 64.2373 33.2665 64.1482 33.3377C64.068 33.409 63.9611 33.4447 63.8274 33.4447H62.9186C62.7938 33.4447 62.6913 33.4135 62.6111 33.3511C62.5309 33.2798 62.4775 33.1996 62.4507 33.1105L60.9537 28.673L59.4568 33.1105C59.3855 33.3333 59.2295 33.4447 58.989 33.4447H58.0801Z" fill="white"/>
<path d="M66.5018 33.4447C66.4216 33.4447 66.3548 33.4179 66.3013 33.3645C66.2478 33.311 66.2211 33.2442 66.2211 33.164L66.2478 33.0437L69.4557 24.4226C69.5448 24.1999 69.7052 24.0885 69.9368 24.0885H71.4071C71.6388 24.0885 71.7992 24.1999 71.8883 24.4226L75.0961 33.0437L75.1229 33.164C75.1229 33.2442 75.0917 33.311 75.0293 33.3645C74.9758 33.4179 74.9134 33.4447 74.8422 33.4447H73.6526C73.4655 33.4447 73.3363 33.36 73.265 33.1907L72.6501 31.5734H68.6938L68.079 33.1907C68.0077 33.36 67.8785 33.4447 67.6914 33.4447H66.5018ZM69.1616 30.023H72.1823L70.672 25.9062L69.1616 30.023Z" fill="white"/>
<path d="M76.6778 33.4447C76.5887 33.4447 76.5129 33.4135 76.4506 33.3511C76.3882 33.2887 76.357 33.213 76.357 33.1239V24.4226C76.357 24.3246 76.3837 24.2444 76.4372 24.182C76.4996 24.1197 76.5798 24.0885 76.6778 24.0885H80.2599C81.3381 24.0885 82.1846 24.3424 82.7994 24.8503C83.4143 25.3582 83.7217 26.0978 83.7217 27.0691C83.7217 28.0314 83.4143 28.7621 82.7994 29.2611C82.1846 29.7512 81.3381 29.9962 80.2599 29.9962H78.2951V33.1239C78.2951 33.2219 78.2639 33.3021 78.2015 33.3645C78.1391 33.4179 78.0589 33.4447 77.9609 33.4447H76.6778ZM80.1931 28.4993C80.7099 28.4993 81.1019 28.379 81.3693 28.1384C81.6455 27.8889 81.7836 27.528 81.7836 27.0557C81.7836 26.5924 81.6499 26.2315 81.3826 25.9731C81.1242 25.7147 80.7277 25.5855 80.1931 25.5855H78.2683V28.4993H80.1931Z" fill="white"/>
<path d="M18.0797 39.8404C17.2559 39.8404 16.8815 39.9529 15.9828 40.0654C14.1855 40.2905 14.5599 39.3153 14.2604 38.1152C13.9608 36.915 13.5864 36.69 12.2383 35.7898C10.8903 34.8897 9.46743 33.6146 9.0181 33.0895C8.56876 32.5644 7.5952 32.0393 6.8463 31.8893C6.0974 31.7393 4.74933 29.9391 4.00043 28.5139C3.25153 27.0887 2.27808 24.6133 2.12826 22.138C1.99044 19.8608 2.35286 16.0622 4.00043 12.7617C5.648 9.46129 9.24273 6.98595 10.8154 6.53589C12.3881 6.08583 12.6876 5.8608 14.485 4.73565C16.2823 3.61049 18.6039 3.91053 20.1017 4.51062C21.5995 5.1107 21.3748 4.96068 23.0224 4.73565C24.67 4.51062 25.1193 5.56076 25.5687 5.56076C26.018 5.56076 27.9867 2.3797 29.3347 0.729478C30.6827 -0.920745 30.9552 0.718083 30.8803 1.31816C30.8055 1.91825 29.1634 8.48615 28.9387 9.16125C28.714 9.83634 30.8858 9.91135 31.7845 10.2114C32.6832 10.5114 32.6832 11.7116 32.7581 12.0866C32.8329 12.4617 34.4805 12.4617 35.6039 12.7617C36.7272 13.0618 38.8241 13.8119 38.899 16.0622C38.9739 18.3125 38.0003 20.1127 37.1765 22.5131C36.3528 24.9134 37.1765 28.3638 36.7272 29.414C36.2779 30.4641 34.6303 33.6896 32.4585 34.8147C30.2867 35.9399 27.6656 35.8649 26.9916 36.0149C26.3176 36.1649 24.5078 38.1602 22.7229 39.0153C21.0004 39.8404 18.7196 39.8404 18.0797 39.8404Z" fill="url(#paint0_linear_2283_34042)"/>
<g opacity="0.3">
<path d="M32.4987 26.9261C32.3809 26.2196 31.1983 25.16 31.0266 24.9392C30.3642 24.277 31.321 24.2622 32.4987 24.4977C33.2347 24.6449 34.1327 24.9392 34.4123 26.3374C34.5301 26.9261 34.4123 28.177 33.2347 28.3242C32.0571 28.4714 32.6459 27.8091 32.4987 26.9261Z" fill="black"/>
<path d="M36.5337 16.6607C36.7225 16.4352 37.2938 16.4021 37.5558 16.4137C38.1393 16.5187 37.6204 18.9133 37.2106 19.0017C36.8009 19.0902 36.298 18.7171 36.2096 18.3074C36.1211 17.8977 36.2976 16.9426 36.5337 16.6607Z" fill="black"/>
<path d="M34.1617 16.4008C34.9149 16.4177 35.479 16.7366 35.6669 16.8939C35.8498 17.1909 35.853 17.817 35.7952 18.344C35.7375 18.8711 33.6717 18.5319 32.6161 18.9906C31.5604 19.4493 30.531 20.793 30.1363 20.4626C29.7417 20.1321 29.8008 19.0308 29.9576 18.4428C30.1144 17.8548 30.0594 17.2334 29.6588 17.4254L29.6454 17.4318C29.2438 17.6243 28.6028 17.9317 28.1567 17.5582C27.7057 17.1806 26.8357 16.7878 26.8481 17.5174C26.8605 18.247 25.6848 19.708 24.8821 20.6663C24.0795 21.6246 24.3399 21.0275 24.9335 18.8872C25.5271 16.7469 24.9052 15.0274 24.4514 15.7982C23.9976 16.5691 23.8546 17.3124 23.6107 16.9164C23.3669 16.5205 23.7671 14.5539 24.2635 13.6749C24.7599 12.7959 24.1429 12.9026 23.5837 12.4823C23.0246 12.0621 24.1077 11.9141 25.3324 11.597C26.5571 11.2799 30.6187 11.7557 30.9143 12.1471C31.2099 12.5385 31.3213 13.2072 31.0243 13.3901C30.7272 13.5729 30.834 14.1898 31.2438 14.1013C31.6536 14.0129 33.0947 13.7811 34.8162 14.3595C36.5378 14.9379 36.6781 15.3431 35.9392 15.2519C35.2003 15.1606 32.7417 15.6913 32.3457 15.9351C31.9496 16.1789 31.8584 16.9176 32.221 16.8856C32.5835 16.8535 33.2202 16.3796 34.1617 16.4008Z" fill="black"/>
<path d="M27.8357 25.7289C28.0228 23.1235 28.5133 21.9806 28.7351 21.7348C28.8475 21.5682 29.678 21.1816 29.2475 23.986C28.8171 26.7903 29.6283 30.059 29.8662 30.9774C30.1041 31.8959 32.2657 31.5481 33.4996 31.3346C34.7335 31.1211 34.2279 31.8965 33.5197 32.742C32.8116 33.5876 30.4597 34.7351 29.89 34.7855C29.3202 34.8359 30.8539 33.291 31.0153 32.7548C31.1766 32.2186 30.2901 32.8189 29.0122 33.7149C27.7343 34.6108 27.3718 34.6429 28.1496 32.2253C28.9275 29.8078 27.6019 28.9856 27.8357 25.7289Z" fill="black"/>
<path d="M18.177 14.2352C19.0098 13.4483 20.469 13.2959 21.0946 13.3181C21.5162 13.3097 21.2377 14.7976 20.9302 14.9452C20.6228 15.0928 19.9949 14.4751 19.8541 15.4619C19.7133 16.4488 20.6539 16.1422 20.7106 16.2602C20.7672 16.3781 20.4707 17.73 20.2772 18.0165C20.0837 18.3029 19.3763 18.1103 18.4997 17.4669C17.623 16.8235 17.1359 15.2189 18.177 14.2352Z" fill="black"/>
<path d="M29.1461 3.8876L25.0652 9.48472C24.8617 9.76789 24.7334 10.1291 25.5983 10.4734C26.2903 10.7489 27.1234 10.6637 27.2326 10.4734C28.4837 6.38953 29.1461 4.9178 29.3669 4.10836C29.4459 3.81877 29.2933 3.74043 29.1461 3.8876Z" fill="black"/>
<path d="M28.1434 14.6623C27.6391 14.2545 26.4486 14.0138 25.9164 13.9445C26.168 13.1247 28.8036 13.5849 29.3045 13.6843C29.8053 13.7837 29.6398 14.1648 29.4078 14.7877C29.1757 15.4107 28.7738 15.172 28.1434 14.6623Z" fill="black"/>
<path d="M30.3974 29.7898C30.3974 28.9068 30.7567 28.177 31.1738 27.5883C31.5549 26.9996 31.5418 27.3736 31.5418 28.6185C31.5418 29.9225 31.8694 30.0842 32.5318 30.0842C33.0471 30.0842 33.7831 29.937 34.2983 29.4219C34.5191 29.2011 34.9275 28.177 35.1483 28.2506C35.3692 28.3242 34.9607 29.8634 34.5191 30.3049C34.0775 30.7464 32.8999 30.82 31.8694 30.8936C30.839 30.9672 30.3974 30.8936 30.3974 29.7898Z" fill="black"/>
<path d="M35.6747 22.019C35.4753 22.1695 35.5284 21.8252 35.5799 21.6343C36.3961 19.5193 35.0549 20.0748 34.0665 20.2337C33.0781 20.3927 32.4383 22.3094 32.0652 22.8516C31.692 23.3939 31.979 21.8737 32.2151 20.7178C32.4511 19.562 34.0956 19.4948 34.928 19.3883C35.7604 19.2818 36.708 19.4144 36.6789 20.1533C36.6499 20.8923 35.924 21.831 35.6747 22.019Z" fill="black"/>
<path d="M22.3659 19.9419C23.0194 19.4981 23.0307 20.1004 22.9547 20.4571C22.2172 24.9359 26.2701 28.0318 26.7129 28.5665C27.1558 29.1012 24.1493 27.7214 22.3585 25.4367C20.5676 23.152 21.549 20.4965 22.3659 19.9419Z" fill="black"/>
<path d="M22.8163 10.8783C22.463 10.8783 21.7858 10.2405 21.4914 9.92164C18.6209 6.68386 16.56 6.90462 15.824 6.97821C15.088 7.0518 14.8672 7.05179 15.088 6.83104C15.3088 6.61028 17.0016 5.80083 18.4001 6.02159C19.7986 6.24235 20.9026 6.83104 21.7122 8.15558C22.5219 9.48013 22.8163 9.6273 22.9635 9.48013C23.1107 9.33296 22.8899 8.44993 22.8163 7.64048C22.7427 6.83104 23.5523 6.83104 23.6995 6.83104C23.8467 6.83104 25.0244 7.05179 24.4356 8.74427C23.8467 10.4367 23.2579 10.8783 22.8163 10.8783Z" fill="black"/>
<path d="M13.027 8.52351C16.4422 8.11143 19.2588 9.67636 20.2401 10.5103C21.1234 11.2462 19.6513 11.5405 17.3696 10.5103C15.0879 9.48013 13.1743 10.2896 12.3646 10.6575C11.555 11.0254 12.7326 10.8783 14.3519 10.9518C15.9712 11.0254 17.0752 12.2764 17.296 12.7915C17.5168 13.3066 16.8544 12.7179 14.4991 12.2764C12.1438 11.8349 10.7454 12.4972 9.78851 12.9387C8.83167 13.3802 10.5981 13.0858 11.7758 13.0123C12.9534 12.9387 14.8671 13.0858 10.2301 14.6311C5.59314 16.1764 4.4891 20.4444 4.04748 21.6954C3.60586 22.9463 3.60586 21.769 4.34189 17.9425C5.07792 14.116 8.75807 9.03862 13.027 8.52351Z" fill="black"/>
<path d="M14.1311 15.2198C14.6022 15.2198 14.3274 15.6613 14.1311 15.8821C7.94849 24.8596 14.1311 34.6465 14.4255 35.4559C14.7199 36.2654 9.93572 33.1748 8.61087 29.7898C7.28601 26.4049 8.39006 23.535 8.39006 23.2407C8.39006 22.9463 7.80123 23.535 7.13881 25.0068C6.48339 26.4629 6.69261 28.1351 6.83969 29.3107L6.84439 29.3483C6.9916 30.5257 6.55 29.937 6.3292 29.4219C6.10839 28.9068 4.19471 25.3747 6.55 20.3708C8.9053 15.367 13.5423 15.2198 14.1311 15.2198Z" fill="black"/>
<path d="M15.3823 17.6482C15.7356 17.1183 15.6768 17.7708 15.6032 18.1633C15.2351 20.6652 15.0879 23.3879 18.1793 28.9804C21.2706 34.5729 18.3265 37.5163 17.5168 38.105C16.7072 38.6937 15.6032 39.7975 16.3392 38.105C17.0752 36.4126 17.1488 33.9842 14.1311 28.3917C11.1134 22.7992 14.9407 18.3104 15.3823 17.6482Z" fill="black"/>
<path d="M17.9584 23.903C17.5463 21.3716 19.2588 20.052 20.1665 19.7086C20.3873 19.7086 20.7554 19.0463 20.1665 21.2539C19.5777 23.4614 20.3137 25.4483 21.3442 26.7728C22.3746 28.0974 26.57 30.82 25.9076 33.6899C25.2451 36.5597 22.7426 37.8107 21.4914 38.473C20.2401 39.1352 19.5041 39.4296 21.197 37.8107C22.8899 36.1918 24.1411 33.1012 22.0066 30.1578C19.8721 27.2143 18.4737 27.0672 17.9584 23.903Z" fill="black"/>
</g>
<path d="M32.4978 26.1902C32.3801 25.4837 31.1975 24.4241 31.0257 24.2033C30.3633 23.5411 31.3202 23.5263 32.4978 23.7618C33.2338 23.909 34.1318 24.2033 34.4115 25.6015C34.5293 26.1902 34.4115 27.4411 33.2339 27.5883C32.0562 27.7355 32.645 27.0732 32.4978 26.1902Z" fill="#EA1E62"/>
<path d="M36.5352 15.9248C36.724 15.6993 37.2953 15.6662 37.5573 15.6778C38.1408 15.7828 37.6219 18.1774 37.2121 18.2658C36.8024 18.3542 36.2995 17.9812 36.2111 17.5714C36.1226 17.1617 36.2991 16.2066 36.5352 15.9248Z" fill="white"/>
<path d="M34.1632 15.6648C34.9163 15.6817 35.4805 16.0007 35.6684 16.158C35.8513 16.455 35.8545 17.081 35.7967 17.6081C35.739 18.1351 33.6732 17.7959 32.6175 18.2546C31.5619 18.7134 30.5325 20.0571 30.1378 19.7266C29.7432 19.3962 29.8023 18.2949 29.9591 17.7069C30.1159 17.1189 30.0609 16.4974 29.6603 16.6894L29.6469 16.6958C29.2453 16.8884 28.6042 17.1958 28.1582 16.8223C27.7072 16.4446 26.8372 16.0518 26.8496 16.7815C26.862 17.5111 25.6863 18.9721 24.8836 19.9304C24.081 20.8887 24.3414 20.2915 24.935 18.1513C25.5286 16.011 24.9067 14.2914 24.4529 15.0623C23.9991 15.8331 23.8561 16.5765 23.6122 16.1805C23.3684 15.7845 23.7686 13.8179 24.265 12.9389C24.7614 12.0599 24.1444 12.1667 23.5852 11.7464C23.0261 11.3261 24.1092 11.1781 25.3339 10.861C26.5586 10.5439 30.6201 11.0198 30.9158 11.4112C31.2114 11.8026 31.3228 12.4713 31.0258 12.6541C30.7287 12.837 30.8355 13.4538 31.2453 13.3654C31.6551 13.277 33.0962 13.0451 34.8177 13.6236C36.5393 14.202 36.6796 14.6071 35.9407 14.5159C35.2018 14.4247 32.7432 14.9553 32.3472 15.1991C31.9511 15.4429 31.8599 16.1817 32.2225 16.1496C32.585 16.1176 33.2217 15.6437 34.1632 15.6648Z" fill="white"/>
<path d="M27.8372 24.9929C28.0243 22.3876 28.5147 21.2446 28.7366 20.9988C28.849 20.8323 29.6795 20.4457 29.249 23.25C28.8186 26.0544 29.6298 29.323 29.8677 30.2415C30.1056 31.1599 32.2672 30.8122 33.5011 30.5986C34.735 30.3851 34.2294 31.1606 33.5212 32.0061C32.8131 32.8516 30.4612 33.9992 29.8915 34.0495C29.3217 34.0999 30.8554 32.5551 31.0168 32.0188C31.1781 31.4826 30.2916 32.083 29.0137 32.9789C27.7358 33.8749 27.3732 33.9069 28.1511 31.4894C28.929 29.0719 27.6034 28.2496 27.8372 24.9929Z" fill="white"/>
<path d="M18.1784 13.4993C19.0112 12.7124 20.4705 12.56 21.096 12.5822C21.5177 12.5738 21.2392 14.0616 20.9317 14.2093C20.6243 14.3569 19.9964 13.7391 19.8556 14.726C19.7148 15.7128 20.6554 15.4063 20.7121 15.5242C20.7687 15.6422 20.4722 16.9941 20.2787 17.2805C20.0852 17.5669 19.3778 17.3744 18.5012 16.731C17.6245 16.0876 17.1374 14.483 18.1784 13.4993Z" fill="white"/>
<path d="M29.6603 1.68602L25.0667 8.74879C24.8632 9.03196 24.7349 9.39315 25.5998 9.7375C26.2918 10.013 27.1249 9.9278 27.2341 9.7375C28.4851 5.65359 29.6296 2.78981 29.8504 1.98037C29.9294 1.69077 29.8074 1.53885 29.6603 1.68602Z" fill="white"/>
<path d="M28.1434 13.9264C27.6391 13.5186 26.4486 13.2779 25.9164 13.2085C26.168 12.3888 28.8036 12.849 29.3044 12.9483C29.8053 13.0477 29.6398 13.4288 29.4077 14.0518C29.1756 14.6747 28.7737 14.4361 28.1434 13.9264Z" fill="#0D0308"/>
<path d="M30.3984 29.054C30.3984 28.171 30.7578 27.4412 31.1749 26.8525C31.556 26.2638 31.5429 26.6378 31.5429 27.8827C31.5429 29.1867 31.8705 29.3483 32.5329 29.3483C33.0481 29.3483 33.7842 29.2012 34.2994 28.6861C34.5202 28.4653 34.9286 27.4412 35.1494 27.5148C35.3702 27.5884 34.9618 29.1276 34.5202 29.5691C34.0786 30.0106 32.9009 30.0842 31.8705 30.1578C30.8401 30.2314 30.3984 30.1578 30.3984 29.054Z" fill="white"/>
<path d="M35.6748 21.2831C35.4754 21.4336 35.5285 21.0893 35.58 20.8984C36.3962 18.7834 35.055 19.3389 34.0666 19.4979C33.0782 19.6568 32.4384 21.5735 32.0652 22.1157C31.6921 22.658 31.9791 21.1378 32.2152 19.9819C32.4512 18.8261 34.0957 18.7589 34.9281 18.6524C35.7605 18.5459 36.7081 18.6785 36.679 19.4174C36.65 20.1564 35.9241 21.0951 35.6748 21.2831Z" fill="white"/>
<path d="M22.3669 19.206C23.0204 18.7623 23.0317 19.3646 22.9557 19.7212C22.2182 24.2001 26.2711 27.2959 26.7139 27.8306C27.1568 28.3653 24.1503 26.9856 22.3595 24.7009C20.5686 22.4161 21.55 19.7607 22.3669 19.206Z" fill="#FFC108"/>
<path d="M22.8178 10.1424C22.4645 10.1424 21.7874 9.50462 21.493 9.18575C18.6225 5.94797 16.5616 6.16873 15.8255 6.24232C15.0895 6.3159 14.8687 6.3159 15.0895 6.09514C15.3103 5.87439 17.0032 5.06494 18.4016 5.2857C19.8001 5.50646 20.9041 6.09514 21.7138 7.41969C22.5234 8.74424 22.8178 8.89141 22.965 8.74424C23.1122 8.59706 22.8914 7.71403 22.8178 6.90459C22.7442 6.09514 23.5538 6.09514 23.7011 6.09514C23.8483 6.09514 25.0259 6.3159 24.4371 8.00838C23.8483 9.70085 23.2594 10.1424 22.8178 10.1424Z" fill="#EA1E62"/>
<path d="M13.027 7.7876C16.4422 7.37552 19.2588 8.94044 20.2401 9.77442C21.1234 10.5103 19.6513 10.8046 17.3696 9.77442C15.0879 8.74421 13.1743 9.55366 12.3646 9.92159C11.555 10.2895 12.7326 10.1423 14.3519 10.2159C15.9712 10.2895 17.0752 11.5405 17.296 12.0556C17.5168 12.5707 16.8544 11.982 14.4991 11.5405C12.1438 11.099 10.7454 11.7612 9.78851 12.2027C8.83167 12.6443 10.5981 12.3499 11.7758 12.2763C12.9534 12.2027 14.8671 12.3499 10.2301 13.8952C5.59314 15.4405 4.4891 19.7085 4.04748 20.9595C3.60586 22.2104 3.60586 21.0331 4.34189 17.2066C5.07792 13.3801 8.75807 8.3027 13.027 7.7876Z" fill="#9B28B0"/>
<path d="M14.131 14.484C14.602 14.484 14.3273 14.9255 14.131 15.1463C7.94835 24.1238 14.131 33.9107 14.4254 34.7201C14.7198 35.5296 9.93559 32.439 8.61073 29.054C7.28588 25.6691 8.38992 22.7992 8.38992 22.5049C8.38992 22.2105 7.8011 22.7992 7.13867 24.2709C6.48326 25.7271 6.69248 27.3993 6.83956 28.5749L6.84426 28.6125C6.99147 29.7899 6.54987 29.2012 6.32906 28.6861C6.10825 28.171 4.19457 24.6389 6.54987 19.635C8.90517 14.6312 13.5422 14.484 14.131 14.484Z" fill="#3F51B5"/>
<path d="M15.3852 16.9122C15.7385 16.3824 15.6796 17.0349 15.606 17.4273C15.238 19.9293 15.0908 22.6519 18.1821 28.2445C21.2734 33.837 18.3293 36.7804 17.5197 37.3691C16.71 37.9578 15.606 39.0616 16.342 37.3691C17.078 35.6766 17.1516 33.2483 14.1339 27.6558C11.1162 22.0633 14.9436 17.5745 15.3852 16.9122Z" fill="#03A9F4"/>
<path d="M17.9575 23.1672C17.5453 20.6358 19.2578 19.3162 20.1656 18.9728C20.3864 18.9728 20.7544 18.3105 20.1656 20.5181C19.5767 22.7257 20.3128 24.7125 21.3432 26.037C22.3737 27.3616 26.5691 30.0842 25.9066 32.9541C25.2442 35.8239 22.7417 37.0749 21.4904 37.7372C20.2392 38.3994 19.5032 38.6938 21.196 37.0749C22.8889 35.456 24.1402 32.3654 22.0057 29.422C19.8712 26.4785 18.4727 26.3314 17.9575 23.1672Z" fill="#8BC44A"/>
</g>
<defs>
<linearGradient id="paint0_linear_2283_34042" x1="20.5023" y1="1.29957" x2="20.5023" y2="40.0979" gradientUnits="userSpaceOnUse">
<stop stop-color="#101216"/>
<stop offset="1" stop-color="#0E1014"/>
</linearGradient>
<clipPath id="clip0_2283_34042">
<rect width="150" height="40" fill="white"/>
</clipPath>
</defs>
</svg>
