<svg width="16" height="16" viewBox="0 0 16 16" fill="none" xmlns="http://www.w3.org/2000/svg">
<path d="M9.9987 0.666504H2.66536C1.93203 0.666504 1.33203 1.2665 1.33203 1.99984V10.6665C1.33203 11.0332 1.63203 11.3332 1.9987 11.3332C2.36536 11.3332 2.66536 11.0332 2.66536 10.6665V2.6665C2.66536 2.29984 2.96536 1.99984 3.33203 1.99984H9.9987C10.3654 1.99984 10.6654 1.69984 10.6654 1.33317C10.6654 0.966504 10.3654 0.666504 9.9987 0.666504ZM12.6654 3.33317H5.33203C4.5987 3.33317 3.9987 3.93317 3.9987 4.6665V13.9998C3.9987 14.7332 4.5987 15.3332 5.33203 15.3332H12.6654C13.3987 15.3332 13.9987 14.7332 13.9987 13.9998V4.6665C13.9987 3.93317 13.3987 3.33317 12.6654 3.33317ZM11.9987 13.9998H5.9987C5.63203 13.9998 5.33203 13.6998 5.33203 13.3332V5.33317C5.33203 4.9665 5.63203 4.6665 5.9987 4.6665H11.9987C12.3654 4.6665 12.6654 4.9665 12.6654 5.33317V13.3332C12.6654 13.6998 12.3654 13.9998 11.9987 13.9998Z" fill="#EA1E62"/>
</svg>
