<svg width="30" height="30" viewBox="0 0 30 30" fill="none" xmlns="http://www.w3.org/2000/svg">
<path d="M15 7.5C16.3807 7.5 17.5 6.38071 17.5 5C17.5 3.61929 16.3807 2.5 15 2.5C13.6193 2.5 12.5 3.61929 12.5 5C12.5 6.38071 13.6193 7.5 15 7.5Z" fill="#EA1E62"/>
<path d="M19.8613 10.1375C19.3738 9.65 18.5363 8.75 16.9113 8.75C16.6488 8.75 15.1363 8.75 13.7363 8.75C10.6613 8.7375 8.09876 6.5 7.58626 3.5625C7.48626 2.95 6.97376 2.5 6.36126 2.5C5.59876 2.5 4.99876 3.175 5.11126 3.925C5.66126 7.25 8.08626 9.9375 11.2488 10.8875V26.25C11.2488 26.9375 11.8113 27.5 12.4988 27.5C13.1863 27.5 13.7488 26.9375 13.7488 26.25V20H16.2488V26.25C16.2488 26.9375 16.8113 27.5 17.4988 27.5C18.1863 27.5 18.7488 26.9375 18.7488 26.25V12.5625L22.7988 16.6125C23.2863 17.1 24.0738 17.1 24.5613 16.6125C25.0488 16.125 25.0488 15.3375 24.5613 14.85L19.8613 10.1375Z" fill="#EA1E62"/>
</svg>
