<svg width="18" height="18" viewBox="0 0 18 18" fill="none" xmlns="http://www.w3.org/2000/svg">
<path fill-rule="evenodd" clip-rule="evenodd" d="M8.15547 16.3111C12.6596 16.3111 16.3109 12.6597 16.3109 8.15554C16.3109 3.65136 12.6596 0 8.15547 0C3.65133 0 0 3.65136 0 8.15554C0 12.6597 3.65133 16.3111 8.15547 16.3111ZM8.15547 14.2722C11.5336 14.2722 14.2721 11.5337 14.2721 8.15554C14.2721 4.77741 11.5336 2.03889 8.15547 2.03889C4.77737 2.03889 2.03887 4.77741 2.03887 8.15554C2.03887 11.5337 4.77737 14.2722 8.15547 14.2722Z" fill="white"/>
<path d="M12.9403 14.382C12.5498 13.9914 12.5498 13.3583 12.9403 12.9678L12.9678 12.9403C13.3583 12.5497 13.9915 12.5497 14.382 12.9403L17.2929 15.8512C17.6834 16.2417 17.6834 16.8749 17.2929 17.2654L17.2654 17.2929C16.8749 17.6834 16.2417 17.6834 15.8512 17.2929L12.9403 14.382Z" fill="white"/>
</svg>
