<svg width="8" height="10" viewBox="0 0 8 10" fill="none" xmlns="http://www.w3.org/2000/svg">
<path d="M7.06333 0H0.936671C0.813229 0.000477905 0.691081 0.0275433 0.577202 0.0796508C0.463323 0.131758 0.359944 0.207887 0.272967 0.303691C0.185989 0.399495 0.117116 0.513098 0.0702818 0.638013C0.0234471 0.762928 -0.000432584 0.896708 5.93162e-06 1.03172V7.71783C-0.000432584 7.85284 0.0234471 7.98662 0.0702818 8.11153C0.117116 8.23645 0.185989 8.35005 0.272967 8.44585C0.359944 8.54166 0.463323 8.61779 0.577202 8.66989C0.691081 8.722 0.813229 8.74907 0.936671 8.74954H6.12L5.88 7.82355L6.46333 8.4907L7.01666 9.04849L7.99999 10V1.03172C8.00043 0.896708 7.97655 0.762928 7.92972 0.638013C7.88288 0.513098 7.81401 0.399495 7.72703 0.303691C7.64006 0.207887 7.53668 0.131758 7.4228 0.0796508C7.30892 0.0275433 7.18677 0.000477905 7.06333 0ZM5.29666 6.52935C5.29666 6.52935 5.13333 6.31425 4.99667 6.12468C5.32774 6.03958 5.62058 5.82907 5.82333 5.53044C5.65845 5.65015 5.48179 5.74921 5.29666 5.82574C5.08297 5.92592 4.85919 5.99812 4.63 6.04083C4.2379 6.12166 3.83544 6.12166 3.44333 6.04083C3.21553 5.99176 2.99235 5.91975 2.77667 5.82574C2.66186 5.77908 2.55043 5.72302 2.44334 5.65804L2.4 5.63252H2.38334C2.3 5.58148 2.25334 5.54502 2.25334 5.54502C2.44897 5.83779 2.73191 6.04667 3.05333 6.13562L2.75 6.55122C2.47831 6.55895 2.20902 6.4939 1.96559 6.36173C1.72215 6.22956 1.51196 6.03429 1.35334 5.79293C1.37025 4.77801 1.59824 3.78063 2.02 2.87641C2.3877 2.56019 2.83615 2.37674 3.30333 2.35144L3.35 2.41342C2.90999 2.53181 2.49918 2.7546 2.14667 3.06599C2.14667 3.06599 2.24667 3.00766 2.41667 2.92016C2.74513 2.75708 3.09493 2.65129 3.45333 2.60663H3.53333C3.84 2.56626 4.15 2.56626 4.45667 2.60663C4.93957 2.66649 5.40717 2.82871 5.83333 3.08421C5.49854 2.78711 5.11002 2.57092 4.69333 2.44987L4.75667 2.36967C5.22483 2.39517 5.67429 2.57856 6.04333 2.89464C6.46433 3.79917 6.69227 4.79636 6.71 5.81116C6.54576 6.04776 6.33114 6.23688 6.08481 6.36205C5.83848 6.48722 5.56792 6.54465 5.29666 6.52935Z" fill="white"/>
<path d="M4.84022 5.30436C5.09795 5.30436 5.30689 5.05626 5.30689 4.75022C5.30689 4.44418 5.09795 4.19608 4.84022 4.19608C4.58249 4.19608 4.37355 4.44418 4.37355 4.75022C4.37355 5.05626 4.58249 5.30436 4.84022 5.30436Z" fill="white"/>
<path d="M3.17312 4.196C3.07029 4.18644 2.96723 4.21122 2.87755 4.26708C2.78787 4.32293 2.71579 4.40723 2.67084 4.50883C2.62589 4.61043 2.61018 4.72455 2.62578 4.83613C2.64139 4.9477 2.68758 5.05147 2.75825 5.13373C2.82891 5.21598 2.92074 5.27286 3.02158 5.29683C3.12243 5.32081 3.22755 5.31076 3.32306 5.26802C3.41858 5.22527 3.49999 5.15184 3.55654 5.05742C3.61309 4.963 3.64212 4.85205 3.63979 4.7392C3.64251 4.59987 3.59516 4.46492 3.5079 4.36335C3.42065 4.26178 3.30045 4.2017 3.17312 4.196Z" fill="white"/>
</svg>
