<svg width="10" height="10" viewBox="0 0 10 10" fill="none" xmlns="http://www.w3.org/2000/svg">
<g clip-path="url(#clip0_2283_34200)">
<path d="M8.81282 3.0453C9.20322 2.7681 9.53162 2.4221 9.79922 2.0237V2.0233C9.44202 2.1797 9.06202 2.2837 8.66522 2.3341C9.07322 2.0905 9.38482 1.7077 9.53122 1.2465C9.15082 1.4733 8.73082 1.6333 8.28322 1.7229C7.92202 1.3381 7.40722 1.1001 6.84562 1.1001C5.75602 1.1001 4.87882 1.9845 4.87882 3.0685C4.87882 3.2245 4.89202 3.3745 4.92442 3.5173C3.28842 3.4373 1.84042 2.6533 0.867619 1.4585C0.698019 1.7533 0.598019 2.0905 0.598019 2.4533C0.598019 3.1349 0.948819 3.7389 1.47242 4.0889C1.15602 4.0829 0.846019 3.9909 0.583219 3.8465V3.8681C0.583219 4.8245 1.26522 5.6189 2.16002 5.8021C1.99962 5.8461 1.82522 5.8669 1.64402 5.8669C1.51802 5.8669 1.39082 5.8597 1.27162 5.8333C1.52642 6.6125 2.25042 7.1857 3.11042 7.2045C2.44082 7.7281 1.59042 8.0437 0.670019 8.0437C0.508819 8.0437 0.354019 8.0365 0.199219 8.0169C1.07122 8.5789 2.10402 8.9001 3.21842 8.9001C6.69162 8.9001 8.95522 6.0025 8.81282 3.0453Z" fill="white"/>
</g>
<defs>
<clipPath id="clip0_2283_34200">
<rect width="9.6" height="9.6" fill="white" transform="translate(0.199219 0.200195)"/>
</clipPath>
</defs>
</svg>
