<svg width="14" height="4" viewBox="0 0 14 4" fill="none" xmlns="http://www.w3.org/2000/svg">
<path d="M3.39663 0.154285C3.40811 0.100952 3.42915 0.0628569 3.45975 0.0399998C3.49417 0.013333 3.53242 0 3.5745 0H4.32612C4.36054 0 4.38923 0.013333 4.41218 0.0399998C4.43896 0.0628569 4.45234 0.0914282 4.45234 0.125714L4.44661 0.171429L3.70646 3.78286C3.69881 3.83619 3.6663 3.88571 3.60892 3.93143C3.55537 3.97714 3.49226 4 3.41958 4H2.94337C2.87069 4 2.80949 3.97905 2.75977 3.93714C2.71004 3.89143 2.67561 3.84 2.65649 3.78286L2.22617 2.49143L1.79586 3.78286C1.77673 3.84 1.74231 3.89143 1.69258 3.93714C1.64285 3.97905 1.58165 4 1.50898 4H1.03276C0.960085 4 0.895059 3.97714 0.837684 3.93143C0.784133 3.88571 0.753533 3.83619 0.745883 3.78286L0.00573757 0.171429L0 0.125714C0 0.0914282 0.0114751 0.0628569 0.0344254 0.0399998C0.0612006 0.013333 0.0918009 0 0.126226 0H0.877846C0.919922 0 0.95626 0.013333 0.98686 0.0399998C1.02129 0.0628569 1.04424 0.100952 1.05571 0.154285L1.42291 2.08571L1.76143 1.05143C1.79968 0.940953 1.86471 0.885714 1.95651 0.885714H2.49584C2.58764 0.885714 2.65266 0.940953 2.69091 1.05143L3.02943 2.08571L3.39663 0.154285Z" fill="white"/>
<path d="M8.17046 0.154285C8.18194 0.100952 8.20298 0.0628569 8.23358 0.0399998C8.268 0.013333 8.30625 0 8.34833 0H9.09995C9.13437 0 9.16306 0.013333 9.18601 0.0399998C9.21278 0.0628569 9.22617 0.0914282 9.22617 0.125714L9.22044 0.171429L8.48029 3.78286C8.47264 3.83619 8.44013 3.88571 8.38275 3.93143C8.3292 3.97714 8.26609 4 8.19341 4H7.7172C7.64452 4 7.58332 3.97905 7.53359 3.93714C7.48387 3.89143 7.44944 3.84 7.43032 3.78286L7 2.49143L6.56968 3.78286C6.55056 3.84 6.51613 3.89143 6.46641 3.93714C6.41668 3.97905 6.35548 4 6.28281 4H5.80659C5.73391 4 5.66889 3.97714 5.61151 3.93143C5.55796 3.88571 5.52736 3.83619 5.51971 3.78286L4.77957 0.171429L4.77383 0.125714C4.77383 0.0914282 4.7853 0.0628569 4.80825 0.0399998C4.83503 0.013333 4.86563 0 4.90005 0H5.65167C5.69375 0 5.73009 0.013333 5.76069 0.0399998C5.79511 0.0628569 5.81806 0.100952 5.82954 0.154285L6.19674 2.08571L6.53526 1.05143C6.57351 0.940953 6.63853 0.885714 6.73034 0.885714H7.26967C7.36147 0.885714 7.42649 0.940953 7.46474 1.05143L7.80326 2.08571L8.17046 0.154285Z" fill="white"/>
<path d="M12.9443 0.154285C12.9558 0.100952 12.9768 0.0628569 13.0074 0.0399998C13.0418 0.013333 13.0801 0 13.1222 0H13.8738C13.9082 0 13.9369 0.013333 13.9598 0.0399998C13.9866 0.0628569 14 0.0914282 14 0.125714L13.9943 0.171429L13.2541 3.78286C13.2465 3.83619 13.214 3.88571 13.1566 3.93143C13.103 3.97714 13.0399 4 12.9672 4H12.491C12.4183 4 12.3571 3.97905 12.3074 3.93714C12.2577 3.89143 12.2233 3.84 12.2041 3.78286L11.7738 2.49143L11.3435 3.78286C11.3244 3.84 11.29 3.89143 11.2402 3.93714C11.1905 3.97905 11.1293 4 11.0566 4H10.5804C10.5077 4 10.4427 3.97714 10.3853 3.93143C10.3318 3.88571 10.3012 3.83619 10.2935 3.78286L9.55339 0.171429L9.54766 0.125714C9.54766 0.0914282 9.55913 0.0628569 9.58208 0.0399998C9.60886 0.013333 9.63946 0 9.67388 0H10.4255C10.4676 0 10.5039 0.013333 10.5345 0.0399998C10.5689 0.0628569 10.5919 0.100952 10.6034 0.154285L10.9706 2.08571L11.3091 1.05143C11.3473 0.940953 11.4124 0.885714 11.5042 0.885714H12.0435C12.1353 0.885714 12.2003 0.940953 12.2386 1.05143L12.5771 2.08571L12.9443 0.154285Z" fill="white"/>
</svg>
